<svg id="svg-mimmo"  height="76.52490234375" viewBox="241.53471386225723 193.99184661182034 248.83683576807408 76.5249050861508" width="248.8368377685547" x="25" y="25" class="">        
    <g id="elements" style="isolation: isolate;">
        <defs id="dynamic-definitions">
            <linearGradient id="rect-underline--fill" x1="0" y1="0.5" x2="1" y2="0.5" spreadMethod="pad" gradientUnits="objectBoundingBox">
                <stop id="rect-underline--fill-stop-0" offset="0" stop-color="rgb(32,174,230)"></stop>
                <stop id="rect-underline--fill-stop-1" offset="1" stop-color="rgb(63,87,135)"></stop>
            </linearGradient>
        </defs>
        <defs id="definitions"></defs>
        <g id="elements-wrapper">            
            <path id="path-m1" d="M299.21287,234.207256L299.21287,253.187856L299.21287,242.092579C299.217819,240.033317,300.224213,237.52598,302.05465,236.173048C303.470415,235.126613,304.209075,234.634173,306.979051,234.572618C310.179912,234.326398,314.057878,236.357713,314.057878,241.343669L314.057878,252.977568L314.057878,241.343669C314.599565,239.495497,315.318252,236.707957,317.812734,235.557498C318.268525,234.98014,320.3973,234.490263,322.06003,234.511063C323.565003,234.275029,326.222763,235.281235,327.353761,236.665488C328.168824,237.680551,328.892637,239.804794,328.892637,241.282114L328.892637,252.977568" style="mix-blend-mode: normal; paint-order: fill; pointer-events: none;" fill="none" stroke="rgb(255,255,255)" stroke-width="0.8" stroke-dasharray="110.67" class="svg-elem-1"></path>
            <path id="path-i" d="M337.701502,234.241171L337.701502,252.879639" style="mix-blend-mode: normal; paint-order: fill; pointer-events: none;" fill="none" stroke="rgb(255,255,255)" stroke-width="0.8" stroke-dasharray="18.64" class="svg-elem-2"></path>
            <ellipse id="ellipse-dot-i" rx="0.900612" ry="0.8826" transform="matrix(1.124999 0 0 1.120262 337.709776 228.212234)" style="mix-blend-mode: normal; paint-order: fill; pointer-events: none;" fill="rgb(255,255,255)" stroke="none" stroke-width="0" class="svg-elem-3"></ellipse>
            <path id="path-m2" d="M299.21287,234.207256L299.21287,253.187856L299.21287,242.092579C299.217819,240.033317,300.224213,237.52598,302.05465,236.173048C303.470415,235.126613,304.209075,234.634173,306.979051,234.572618C310.179912,234.326398,314.057878,236.357713,314.057878,241.343669L314.057878,252.977568L314.057878,241.343669C314.599565,239.495497,315.318252,236.707957,317.812734,235.557498C318.268525,234.98014,320.3973,234.490263,322.06003,234.511063C323.565003,234.275029,326.222763,235.281235,327.353761,236.665488C328.168824,237.680551,328.892637,239.804794,328.892637,241.282114L328.892637,252.977568" transform="matrix(1 0 0 1 47.370442 0)" style="mix-blend-mode: normal; paint-order: fill; pointer-events: none;" fill="none" stroke="rgb(255,255,255)" stroke-width="0.8" stroke-dasharray="110.67" class="svg-elem-4"></path>
            <path id="path-m3" d="M299.21287,234.207256L299.21287,253.187856L299.21287,242.092579C299.217819,240.033317,300.224213,237.52598,302.05465,236.173048C303.470415,235.126613,304.209075,234.634173,306.979051,234.572618C310.179912,234.326398,314.057878,236.357713,314.057878,241.343669L314.057878,252.977568L314.057878,241.343669C314.599565,239.495497,315.318252,236.707957,317.812734,235.557498C318.268525,234.98014,320.3973,234.490263,322.06003,234.511063C323.565003,234.275029,326.222763,235.281235,327.353761,236.665488C328.168824,237.680551,328.892637,239.804794,328.892637,241.282114L328.892637,252.977568" transform="matrix(1 0 0 1 85.97364 0)" style="mix-blend-mode: normal; paint-order: fill; pointer-events: none;" fill="none" stroke="rgb(255,255,255)" stroke-width="0.8" stroke-dasharray="110.67" class="svg-elem-5"></path>
            <path id="path-o" d="M421.205805,243.852171C420.941452,239.49034,424.149032,234.337379,429.778988,234.502965C432.799272,234.372013,435.441088,235.700856,436.934832,238.036396C438.582859,240.613166,438.45339,241.816485,438.520952,244.248701C438.520952,249.07315,434.489563,252.509744,429.995555,252.708009C427.021579,252.377567,425.237194,251.650596,423.651074,250.064475C421.16652,247.57992,421.13327,243.924706,421.205805,243.852171Z" transform="matrix(1 0 0 1 0.165587 0)" style="mix-blend-mode: normal; paint-order: fill; pointer-events: none;" fill="none" stroke="rgb(255,255,255)" stroke-width="0.8" stroke-dasharray="56.31" class="svg-elem-6"></path>            
            <rect id="rect-underline" style="mix-blend-mode: normal; paint-order: fill;" fill="url(#rect-underline--fill)" width="141" height="1" rx="0" ry="0" stroke="none" stroke-width="0" transform="matrix(1 0 0 1 298 257.843777)" class="svg-elem-7"></rect>
        </g>
    </g>
</svg>